<svg viewBox="0 0 160 25" xmlns="http://www.w3.org/2000/svg">
    <title>Naviair Logo</title>
    <g id="Page-1" stroke="none" stroke-width="1" fill-rule="evenodd">
        <g id="logo" fill-rule="nonzero">
            <g id="g1" transform="translate(79.960312, 12.359203) scale(-1, 1) rotate(-180.000000) translate(-79.960312, -12.359203) translate(0.306632, 0.584312)">
                <g id="g74" transform="translate(0.713697, 2.311758)">
                    <polygon id="path76" points="19.3939394 0 5.82926407 14.2808658 5.74614719 14.2808658 5.74614719 0 0.883809524 0 0.883809524 19.9951515 6.54822511 19.9951515 20.1115152 5.68658009 20.2223377 5.68658009 20.2223377 19.9951515 25.0846753 19.9951515 25.0846753 0"></polygon>
                </g>
                <g id="g50" transform="translate(36.737801, 13.638788)">
                    <polygon id="path52" points="0 0 5.90545455 9.53350649 11.8081385 0"></polygon>
                </g>
                <g id="g54" transform="translate(29.720797, 2.305662)">
                    <polygon id="path56" points="0 0 5.90545455 9.53073593 11.8095238 0"></polygon>
                </g>
                <g id="g58" transform="translate(43.807584, 2.305662)">
                    <polygon id="path60" points="0 0 5.90683983 9.53073593 11.8109091 0"></polygon>
                </g>
                <g id="g94" transform="translate(52.801108, 0.853472)">
                    <polygon id="path96" points="13.8528139 0 27.1709091 21.4483117 21.5702165 21.4483117 13.8375758 9.1608658 6.10354978 21.4483117 0.504242424 21.4483117"></polygon>
                </g>
                <polygon id="path78" points="83.5837229 22.3058009 88.4474459 22.3058009 88.4474459 2.31064935 83.5837229 2.31064935"></polygon>
                <g id="g62" transform="translate(99.178251, 13.642251)">
                    <polygon id="path64" points="0 0 5.90406926 9.52935065 11.8095238 0"></polygon>
                </g>
                <g id="g66" transform="translate(92.161247, 2.307740)">
                    <polygon id="path68" points="0 0 5.90545455 9.52935065 11.8095238 0"></polygon>
                </g>
                <g id="g70" transform="translate(106.248173, 2.307740)">
                    <polygon id="path72" points="0 0 5.90683983 9.52935065 11.8095238 0"></polygon>
                </g>
                <polygon id="path80" points="121.971255 22.3058009 126.833593 22.3058009 126.833593 2.31064935 121.971255 2.31064935"></polygon>
                <g id="g90" transform="translate(133.546805, 2.311758)">
                    <path d="M24.9350649,0 L19.8524675,7.42926407 C22.862684,8.25489177 24.4100433,10.3037229 24.4100433,13.4524675 C24.4100433,17.3492641 21.4275325,19.9951515 16.8658009,19.9951515 L0.483463203,19.9951515 L0.483463203,0 L5.34718615,0 L5.34718615,7.07186147 L14.5482251,7.07186147 L19.4632035,0 L24.9350649,0 Z M16.3435498,10.9118615 L5.34718615,10.9118615 L5.34718615,16.1593074 L16.3144589,16.1593074 C18.3840693,16.1593074 19.6003463,15.1092641 19.6003463,13.592381 C19.6003463,11.9328139 18.4145455,10.9118615 16.3435498,10.9118615" id="path92"></path>
                </g>
            </g>
        </g>
    </g>
</svg>